<?xml version="1.0" encoding="UTF-8"?>
<svg width="100" height="96" version="1.1" xmlns="http://www.w3.org/2000/svg">
 <path d="m98.699 0.94314v14.556h-23.13l-1.9936 30.308q-0.59683 7.8763-0.59683 13.658 0 13.858 3.1903 16.948 3.2901 2.9909 7.8763 2.9909 9.5707 0 11.366-12.064h3.589q-3.2901 27.715-22.132 27.715-8.7732 0-14.157-5.3834-5.284-5.3834-5.284-15.952 0-6.9788 2.0946-29.51l2.6918-28.713h-21.136q-2.0946 36.29-5.0846 53.039-2.8908 16.749-6.48 21.634-3.4895 4.8851-9.5707 4.8851-4.5861 0-7.7762-2.6918-3.0899-2.6918-3.0899-7.0783 0-4.1873 5.3834-11.465 7.8757-10.568 11.764-21.933 3.8882-11.465 5.8822-36.389h-6.7792q-8.1754 0-12.562 3.6887-4.2869 3.5891-8.1749 10.369h-3.5896q2.8908-10.668 7.4776-17.546 4.5858-6.8792 9.371-8.9729 4.8853-2.0937 17.247-2.0937z"/>
</svg>
